<mxfile host="Electron" modified="2023-04-22T10:35:49.761Z" agent="Mozilla/5.0 (Windows NT 10.0; Win64; x64) AppleWebKit/537.36 (KHTML, like Gecko) draw.io/21.1.2 Chrome/106.0.5249.199 Electron/21.4.3 Safari/537.36" etag="Kzj9XqhHl_CHooQhZ1c0" version="21.1.2" type="device" pages="2">
  <diagram id="dpGVi1HllsctUq-KaAiR" name="Page-2">
    <mxGraphModel dx="1971" dy="825" grid="1" gridSize="10" guides="0" tooltips="1" connect="1" arrows="1" fold="1" page="1" pageScale="1" pageWidth="1169" pageHeight="1654" math="0" shadow="0">
      <root>
        <mxCell id="0" />
        <mxCell id="1" parent="0" />
        <mxCell id="-UDw3oveUEhRjFhQycbo-1" value="&lt;font style=&quot;font-size: 17px;&quot;&gt;&lt;b&gt;Tuesdays L4&amp;nbsp; - All Pathways&lt;/b&gt;&lt;/font&gt;&lt;span style=&quot;font-size: 17px;&quot;&gt;&lt;b&gt;&amp;nbsp;&lt;/b&gt;&lt;/span&gt;" style="rounded=1;whiteSpace=wrap;html=1;fillColor=#dae8fc;strokeColor=#6c8ebf;" parent="1" vertex="1">
          <mxGeometry x="240" y="160" width="420" height="40" as="geometry" />
        </mxCell>
        <mxCell id="2OLuD3v9CsdE47--eV9Q-1" value="&lt;font&gt;&lt;span style=&quot;font-size: 16px&quot;&gt;COM411&lt;br&gt;Problem Solving through Programming)&lt;/span&gt;&lt;/font&gt;" style="rounded=1;whiteSpace=wrap;html=1;fillColor=#dae8fc;strokeColor=#6c8ebf;" parent="1" vertex="1">
          <mxGeometry x="240" y="260" width="200" height="80" as="geometry" />
        </mxCell>
        <mxCell id="2OLuD3v9CsdE47--eV9Q-2" value="&lt;span style=&quot;font-size: 16px&quot;&gt;COM412&lt;br&gt;Introduction to Networks&lt;br&gt;&amp;amp; Security&lt;/span&gt;" style="rounded=1;whiteSpace=wrap;html=1;fillColor=#dae8fc;strokeColor=#6c8ebf;" parent="1" vertex="1">
          <mxGeometry x="460" y="260" width="200" height="80" as="geometry" />
        </mxCell>
        <mxCell id="2OLuD3v9CsdE47--eV9Q-3" value="&lt;font style=&quot;font-size: 17px;&quot;&gt;PM&lt;/font&gt;" style="rounded=1;whiteSpace=wrap;html=1;fillColor=#dae8fc;strokeColor=#6c8ebf;" parent="1" vertex="1">
          <mxGeometry x="460" y="210" width="200" height="40" as="geometry" />
        </mxCell>
        <mxCell id="2OLuD3v9CsdE47--eV9Q-4" value="&lt;font style=&quot;font-size: 17px;&quot;&gt;AM&lt;/font&gt;" style="rounded=1;whiteSpace=wrap;html=1;fillColor=#dae8fc;strokeColor=#6c8ebf;" parent="1" vertex="1">
          <mxGeometry x="240" y="210" width="200" height="40" as="geometry" />
        </mxCell>
        <mxCell id="2OLuD3v9CsdE47--eV9Q-5" value="&lt;font style=&quot;font-size: 17px;&quot;&gt;&lt;b&gt;Weds L5 - NETWORK&lt;/b&gt;&lt;/font&gt;" style="rounded=1;whiteSpace=wrap;html=1;fillColor=#e1d5e7;strokeColor=#9673a6;" parent="1" vertex="1">
          <mxGeometry x="680" y="160" width="420" height="40" as="geometry" />
        </mxCell>
        <mxCell id="2OLuD3v9CsdE47--eV9Q-6" value="&lt;font&gt;&lt;span style=&quot;font-size: 16px&quot;&gt;COM515&lt;br&gt;&amp;nbsp;Enterprise Networks&lt;br&gt;&lt;/span&gt;&lt;/font&gt;" style="rounded=1;whiteSpace=wrap;html=1;fillColor=#e1d5e7;strokeColor=#9673a6;" parent="1" vertex="1">
          <mxGeometry x="680" y="260" width="200" height="80" as="geometry" />
        </mxCell>
        <mxCell id="2OLuD3v9CsdE47--eV9Q-7" value="&lt;span style=&quot;font-size: 16px;&quot;&gt;COM511&lt;br&gt;Network Systems Automation&lt;/span&gt;" style="rounded=1;whiteSpace=wrap;html=1;fillColor=#e1d5e7;strokeColor=#9673a6;" parent="1" vertex="1">
          <mxGeometry x="900" y="260" width="200" height="80" as="geometry" />
        </mxCell>
        <mxCell id="2OLuD3v9CsdE47--eV9Q-8" value="&lt;font style=&quot;font-size: 17px;&quot;&gt;PM&lt;/font&gt;" style="rounded=1;whiteSpace=wrap;html=1;fillColor=#e1d5e7;strokeColor=#9673a6;" parent="1" vertex="1">
          <mxGeometry x="900" y="210" width="200" height="40" as="geometry" />
        </mxCell>
        <mxCell id="2OLuD3v9CsdE47--eV9Q-9" value="&lt;font style=&quot;font-size: 17px;&quot;&gt;AM&lt;/font&gt;" style="rounded=1;whiteSpace=wrap;html=1;fillColor=#e1d5e7;strokeColor=#9673a6;" parent="1" vertex="1">
          <mxGeometry x="680" y="210" width="200" height="40" as="geometry" />
        </mxCell>
        <mxCell id="2OLuD3v9CsdE47--eV9Q-10" value="&lt;font style=&quot;font-size: 17px;&quot;&gt;&lt;b&gt;Wednesday L5 - CYBER&lt;/b&gt;&lt;/font&gt;" style="rounded=1;whiteSpace=wrap;html=1;fillColor=#d5e8d4;strokeColor=#82b366;" parent="1" vertex="1">
          <mxGeometry x="680" y="380" width="420" height="40" as="geometry" />
        </mxCell>
        <mxCell id="2OLuD3v9CsdE47--eV9Q-11" value="&lt;font&gt;&lt;span style=&quot;font-size: 16px&quot;&gt;COM521&lt;br&gt;&amp;nbsp;Ethical hacking&lt;br&gt;&lt;/span&gt;&lt;/font&gt;" style="rounded=1;whiteSpace=wrap;html=1;fillColor=#d5e8d4;strokeColor=#82b366;" parent="1" vertex="1">
          <mxGeometry x="680" y="480" width="200" height="80" as="geometry" />
        </mxCell>
        <mxCell id="2OLuD3v9CsdE47--eV9Q-12" value="&lt;span style=&quot;font-size: 16px;&quot;&gt;COM511&lt;br&gt;Network Systems Automation&lt;/span&gt;" style="rounded=1;whiteSpace=wrap;html=1;fillColor=#d5e8d4;strokeColor=#82b366;" parent="1" vertex="1">
          <mxGeometry x="900" y="480" width="200" height="80" as="geometry" />
        </mxCell>
        <mxCell id="2OLuD3v9CsdE47--eV9Q-13" value="&lt;font style=&quot;font-size: 17px;&quot;&gt;PM&lt;/font&gt;" style="rounded=1;whiteSpace=wrap;html=1;fillColor=#d5e8d4;strokeColor=#82b366;" parent="1" vertex="1">
          <mxGeometry x="900" y="430" width="200" height="40" as="geometry" />
        </mxCell>
        <mxCell id="2OLuD3v9CsdE47--eV9Q-14" value="&lt;font style=&quot;font-size: 17px;&quot;&gt;AM&lt;/font&gt;" style="rounded=1;whiteSpace=wrap;html=1;fillColor=#d5e8d4;strokeColor=#82b366;" parent="1" vertex="1">
          <mxGeometry x="680" y="430" width="200" height="40" as="geometry" />
        </mxCell>
        <mxCell id="2OLuD3v9CsdE47--eV9Q-15" value="&lt;font style=&quot;font-size: 17px;&quot;&gt;&lt;b&gt;Wednesday L5 - SOFTWARE&lt;/b&gt;&lt;/font&gt;" style="rounded=1;whiteSpace=wrap;html=1;fillColor=#b1ddf0;strokeColor=#10739e;" parent="1" vertex="1">
          <mxGeometry x="680" y="600" width="420" height="40" as="geometry" />
        </mxCell>
        <mxCell id="2OLuD3v9CsdE47--eV9Q-16" value="&lt;font&gt;&lt;span style=&quot;font-size: 16px&quot;&gt;COM528&lt;br&gt;&amp;nbsp;Object orientated&lt;br&gt;&lt;/span&gt;&lt;/font&gt;" style="rounded=1;whiteSpace=wrap;html=1;fillColor=#b1ddf0;strokeColor=#10739e;" parent="1" vertex="1">
          <mxGeometry x="680" y="700" width="200" height="80" as="geometry" />
        </mxCell>
        <mxCell id="2OLuD3v9CsdE47--eV9Q-17" value="&lt;span style=&quot;font-size: 16px;&quot;&gt;COM519&lt;br&gt;Advanced Databases&lt;/span&gt;" style="rounded=1;whiteSpace=wrap;html=1;fillColor=#b1ddf0;strokeColor=#10739e;" parent="1" vertex="1">
          <mxGeometry x="900" y="700" width="200" height="80" as="geometry" />
        </mxCell>
        <mxCell id="2OLuD3v9CsdE47--eV9Q-18" value="&lt;font style=&quot;font-size: 17px;&quot;&gt;PM&lt;/font&gt;" style="rounded=1;whiteSpace=wrap;html=1;fillColor=#b1ddf0;strokeColor=#10739e;" parent="1" vertex="1">
          <mxGeometry x="900" y="650" width="200" height="40" as="geometry" />
        </mxCell>
        <mxCell id="2OLuD3v9CsdE47--eV9Q-19" value="&lt;font style=&quot;font-size: 17px;&quot;&gt;AM&lt;/font&gt;" style="rounded=1;whiteSpace=wrap;html=1;fillColor=#b1ddf0;strokeColor=#10739e;" parent="1" vertex="1">
          <mxGeometry x="680" y="650" width="200" height="40" as="geometry" />
        </mxCell>
        <mxCell id="2OLuD3v9CsdE47--eV9Q-20" value="&lt;font style=&quot;font-size: 17px;&quot;&gt;&lt;b&gt;Wednesday L5 - DATA&lt;/b&gt;&lt;/font&gt;" style="rounded=1;whiteSpace=wrap;html=1;fillColor=#e3c800;strokeColor=#B09500;fontColor=#000000;" parent="1" vertex="1">
          <mxGeometry x="680" y="821" width="420" height="40" as="geometry" />
        </mxCell>
        <mxCell id="2OLuD3v9CsdE47--eV9Q-21" value="&lt;font&gt;&lt;span style=&quot;font-size: 16px&quot;&gt;COM517&lt;br&gt;&lt;/span&gt;&lt;span style=&quot;text-align: start; font-size: 11pt; font-family: Calibri, sans-serif; border: 1pt none windowtext; padding: 0cm;&quot;&gt;Analytics and Business Intelligence&lt;/span&gt;&lt;span style=&quot;font-size: 16px&quot;&gt;&lt;br&gt;&lt;/span&gt;&lt;/font&gt;" style="rounded=1;whiteSpace=wrap;html=1;fillColor=#e3c800;strokeColor=#B09500;fontColor=#000000;" parent="1" vertex="1">
          <mxGeometry x="680" y="921" width="200" height="80" as="geometry" />
        </mxCell>
        <mxCell id="2OLuD3v9CsdE47--eV9Q-22" value="&lt;span style=&quot;font-size: 16px;&quot;&gt;COM519&lt;br&gt;Advanced Databases&lt;/span&gt;" style="rounded=1;whiteSpace=wrap;html=1;fillColor=#e3c800;strokeColor=#B09500;fontColor=#000000;" parent="1" vertex="1">
          <mxGeometry x="900" y="921" width="200" height="80" as="geometry" />
        </mxCell>
        <mxCell id="2OLuD3v9CsdE47--eV9Q-23" value="&lt;font style=&quot;font-size: 17px;&quot;&gt;PM&lt;/font&gt;" style="rounded=1;whiteSpace=wrap;html=1;fillColor=#e3c800;strokeColor=#B09500;fontColor=#000000;" parent="1" vertex="1">
          <mxGeometry x="900" y="871" width="200" height="40" as="geometry" />
        </mxCell>
        <mxCell id="2OLuD3v9CsdE47--eV9Q-24" value="&lt;font style=&quot;font-size: 17px;&quot;&gt;AM&lt;/font&gt;" style="rounded=1;whiteSpace=wrap;html=1;fillColor=#e3c800;strokeColor=#B09500;fontColor=#000000;" parent="1" vertex="1">
          <mxGeometry x="680" y="871" width="200" height="40" as="geometry" />
        </mxCell>
        <mxCell id="2OLuD3v9CsdE47--eV9Q-30" value="&lt;font style=&quot;font-size: 17px;&quot;&gt;&lt;b&gt;Thursday L6 CYBER&lt;/b&gt;&lt;/font&gt;" style="rounded=1;whiteSpace=wrap;html=1;fillColor=#d5e8d4;strokeColor=#82b366;" parent="1" vertex="1">
          <mxGeometry x="1120" y="160" width="420" height="40" as="geometry" />
        </mxCell>
        <mxCell id="2OLuD3v9CsdE47--eV9Q-31" value="&lt;font&gt;&lt;span style=&quot;font-size: 16px&quot;&gt;COM613&lt;br&gt;Cyber Ops&lt;br&gt;&lt;/span&gt;&lt;/font&gt;" style="rounded=1;whiteSpace=wrap;html=1;fillColor=#d5e8d4;strokeColor=#82b366;" parent="1" vertex="1">
          <mxGeometry x="1120" y="260" width="200" height="80" as="geometry" />
        </mxCell>
        <mxCell id="2OLuD3v9CsdE47--eV9Q-32" value="&lt;span style=&quot;font-size: 16px;&quot;&gt;COM615&lt;/span&gt;&lt;br style=&quot;font-size: 16px;&quot;&gt;&lt;span style=&quot;font-size: 16px;&quot;&gt;Network Management&lt;/span&gt;" style="rounded=1;whiteSpace=wrap;html=1;fillColor=#d5e8d4;strokeColor=#82b366;" parent="1" vertex="1">
          <mxGeometry x="1340" y="260" width="200" height="80" as="geometry" />
        </mxCell>
        <mxCell id="2OLuD3v9CsdE47--eV9Q-33" value="&lt;font style=&quot;font-size: 17px;&quot;&gt;PM&lt;/font&gt;" style="rounded=1;whiteSpace=wrap;html=1;fillColor=#d5e8d4;strokeColor=#82b366;" parent="1" vertex="1">
          <mxGeometry x="1340" y="210" width="200" height="40" as="geometry" />
        </mxCell>
        <mxCell id="2OLuD3v9CsdE47--eV9Q-34" value="&lt;font style=&quot;font-size: 17px;&quot;&gt;AM&lt;/font&gt;" style="rounded=1;whiteSpace=wrap;html=1;fillColor=#d5e8d4;strokeColor=#82b366;" parent="1" vertex="1">
          <mxGeometry x="1120" y="210" width="200" height="40" as="geometry" />
        </mxCell>
        <mxCell id="2OLuD3v9CsdE47--eV9Q-35" value="&lt;font style=&quot;font-size: 17px&quot;&gt;&lt;b&gt;Thursday L6 - SOFTWARE&amp;nbsp;&lt;/b&gt;&lt;/font&gt;" style="rounded=1;whiteSpace=wrap;html=1;fillColor=#b1ddf0;strokeColor=#10739e;" parent="1" vertex="1">
          <mxGeometry x="1120" y="600" width="420" height="40" as="geometry" />
        </mxCell>
        <mxCell id="2OLuD3v9CsdE47--eV9Q-36" value="&lt;font&gt;&lt;span style=&quot;font-size: 16px&quot;&gt;COM624&lt;br&gt;&amp;nbsp;Machine Learning&lt;br&gt;&lt;/span&gt;&lt;/font&gt;" style="rounded=1;whiteSpace=wrap;html=1;fillColor=#b1ddf0;strokeColor=#10739e;" parent="1" vertex="1">
          <mxGeometry x="1120" y="700" width="200" height="80" as="geometry" />
        </mxCell>
        <mxCell id="2OLuD3v9CsdE47--eV9Q-37" value="&lt;span style=&quot;font-size: 16px;&quot;&gt;COM619&lt;br&gt;Dev Ops&lt;/span&gt;" style="rounded=1;whiteSpace=wrap;html=1;fillColor=#b1ddf0;strokeColor=#10739e;" parent="1" vertex="1">
          <mxGeometry x="1340" y="700" width="200" height="80" as="geometry" />
        </mxCell>
        <mxCell id="2OLuD3v9CsdE47--eV9Q-38" value="&lt;font style=&quot;font-size: 17px;&quot;&gt;PM&lt;/font&gt;" style="rounded=1;whiteSpace=wrap;html=1;fillColor=#b1ddf0;strokeColor=#10739e;" parent="1" vertex="1">
          <mxGeometry x="1340" y="650" width="200" height="40" as="geometry" />
        </mxCell>
        <mxCell id="2OLuD3v9CsdE47--eV9Q-39" value="&lt;font style=&quot;font-size: 17px;&quot;&gt;AM&lt;/font&gt;" style="rounded=1;whiteSpace=wrap;html=1;fillColor=#b1ddf0;strokeColor=#10739e;" parent="1" vertex="1">
          <mxGeometry x="1120" y="650" width="200" height="40" as="geometry" />
        </mxCell>
        <mxCell id="2OLuD3v9CsdE47--eV9Q-40" value="&lt;font style=&quot;font-size: 17px&quot;&gt;&lt;b&gt;Thursday L6 - DATA&amp;nbsp;&lt;/b&gt;&lt;/font&gt;" style="rounded=1;whiteSpace=wrap;html=1;fillColor=#e3c800;strokeColor=#B09500;fontColor=#000000;" parent="1" vertex="1">
          <mxGeometry x="1120" y="821" width="420" height="40" as="geometry" />
        </mxCell>
        <mxCell id="2OLuD3v9CsdE47--eV9Q-41" value="&lt;font&gt;&lt;span style=&quot;font-size: 16px;&quot;&gt;COM624&lt;/span&gt;&lt;br style=&quot;font-size: 16px;&quot;&gt;&lt;span style=&quot;font-size: 16px;&quot;&gt;&amp;nbsp;Machine Learning&lt;/span&gt;&lt;span style=&quot;font-size: 16px&quot;&gt;&lt;br&gt;&lt;/span&gt;&lt;/font&gt;" style="rounded=1;whiteSpace=wrap;html=1;fillColor=#e3c800;strokeColor=#B09500;fontColor=#000000;" parent="1" vertex="1">
          <mxGeometry x="1120" y="921" width="200" height="80" as="geometry" />
        </mxCell>
        <mxCell id="2OLuD3v9CsdE47--eV9Q-42" value="&lt;span style=&quot;font-size: 16px;&quot;&gt;COM621&lt;br&gt;&amp;nbsp;UX&amp;nbsp; Strategies&lt;br&gt;&lt;/span&gt;" style="rounded=1;whiteSpace=wrap;html=1;fillColor=#e3c800;strokeColor=#B09500;fontColor=#000000;" parent="1" vertex="1">
          <mxGeometry x="1340" y="921" width="200" height="80" as="geometry" />
        </mxCell>
        <mxCell id="2OLuD3v9CsdE47--eV9Q-43" value="&lt;font style=&quot;font-size: 17px;&quot;&gt;PM&lt;/font&gt;" style="rounded=1;whiteSpace=wrap;html=1;fillColor=#e3c800;strokeColor=#B09500;fontColor=#000000;" parent="1" vertex="1">
          <mxGeometry x="1340" y="871" width="200" height="40" as="geometry" />
        </mxCell>
        <mxCell id="2OLuD3v9CsdE47--eV9Q-44" value="&lt;font style=&quot;font-size: 17px;&quot;&gt;AM&lt;/font&gt;" style="rounded=1;whiteSpace=wrap;html=1;fillColor=#e3c800;strokeColor=#B09500;fontColor=#000000;" parent="1" vertex="1">
          <mxGeometry x="1120" y="872" width="200" height="40" as="geometry" />
        </mxCell>
        <mxCell id="HGT_rsCarZPwaE3R4nFB-11" value="&lt;font style=&quot;font-size: 17px;&quot;&gt;&lt;b&gt;Thursday L6 - NETWORKING&lt;/b&gt;&lt;/font&gt;" style="rounded=1;whiteSpace=wrap;html=1;fillColor=#CCCCCC;strokeColor=#10739e;" parent="1" vertex="1">
          <mxGeometry x="1120" y="380" width="420" height="40" as="geometry" />
        </mxCell>
        <mxCell id="HGT_rsCarZPwaE3R4nFB-12" value="&lt;font&gt;&lt;span style=&quot;font-size: 16px&quot;&gt;COM611&lt;br&gt;Computer Systems&lt;br&gt;&lt;/span&gt;&lt;/font&gt;" style="rounded=1;whiteSpace=wrap;html=1;fillColor=#CCCCCC;strokeColor=#10739e;" parent="1" vertex="1">
          <mxGeometry x="1120" y="480" width="200" height="80" as="geometry" />
        </mxCell>
        <mxCell id="HGT_rsCarZPwaE3R4nFB-13" value="&lt;span style=&quot;font-size: 16px;&quot;&gt;COM615&lt;/span&gt;&lt;br style=&quot;font-size: 16px;&quot;&gt;&lt;span style=&quot;font-size: 16px;&quot;&gt;Network Management&lt;/span&gt;" style="rounded=1;whiteSpace=wrap;html=1;fillColor=#CCCCCC;strokeColor=#10739e;" parent="1" vertex="1">
          <mxGeometry x="1340" y="480" width="200" height="80" as="geometry" />
        </mxCell>
        <mxCell id="HGT_rsCarZPwaE3R4nFB-14" value="&lt;font style=&quot;font-size: 17px;&quot;&gt;PM&lt;/font&gt;" style="rounded=1;whiteSpace=wrap;html=1;fillColor=#CCCCCC;strokeColor=#10739e;" parent="1" vertex="1">
          <mxGeometry x="1340" y="430" width="200" height="40" as="geometry" />
        </mxCell>
        <mxCell id="HGT_rsCarZPwaE3R4nFB-15" value="&lt;font style=&quot;font-size: 17px;&quot;&gt;AM&lt;/font&gt;" style="rounded=1;whiteSpace=wrap;html=1;fillColor=#CCCCCC;strokeColor=#10739e;" parent="1" vertex="1">
          <mxGeometry x="1120" y="430" width="200" height="40" as="geometry" />
        </mxCell>
        <mxCell id="0K_IOrLI0tBDZyWmZ6-7-2" value="&lt;font style=&quot;font-size: 17px;&quot;&gt;&lt;b&gt;&lt;font style=&quot;font-size: 17px;&quot;&gt;Thursday L6 -&amp;nbsp;&lt;/font&gt;IT Consultant &lt;/b&gt;&lt;/font&gt;" style="rounded=1;whiteSpace=wrap;html=1;fillColor=#fff2cc;strokeColor=#d6b656;" vertex="1" parent="1">
          <mxGeometry x="1120" y="1041" width="420" height="40" as="geometry" />
        </mxCell>
        <mxCell id="0K_IOrLI0tBDZyWmZ6-7-3" value="&lt;font style=&quot;font-size: 16px;&quot;&gt;COM621&lt;br style=&quot;border-color: var(--border-color);&quot;&gt;&lt;span style=&quot;&quot;&gt;&amp;nbsp;UX&amp;nbsp; Strategies&lt;/span&gt;&lt;span style=&quot;font-size: 16px&quot;&gt;&lt;br&gt;&lt;/span&gt;&lt;/font&gt;" style="rounded=1;whiteSpace=wrap;html=1;fillColor=#fff2cc;strokeColor=#d6b656;" vertex="1" parent="1">
          <mxGeometry x="1120" y="1141" width="200" height="80" as="geometry" />
        </mxCell>
        <mxCell id="0K_IOrLI0tBDZyWmZ6-7-4" value="&lt;font style=&quot;font-size: 16px;&quot;&gt;COM619&lt;br style=&quot;border-color: var(--border-color);&quot;&gt;Dev Ops&lt;/font&gt;&lt;span style=&quot;font-size: 16px;&quot;&gt;&lt;br&gt;&lt;/span&gt;" style="rounded=1;whiteSpace=wrap;html=1;fillColor=#fff2cc;strokeColor=#d6b656;" vertex="1" parent="1">
          <mxGeometry x="1340" y="1141" width="200" height="80" as="geometry" />
        </mxCell>
        <mxCell id="0K_IOrLI0tBDZyWmZ6-7-5" value="&lt;font style=&quot;font-size: 17px;&quot;&gt;PM&lt;/font&gt;" style="rounded=1;whiteSpace=wrap;html=1;fillColor=#fff2cc;strokeColor=#d6b656;" vertex="1" parent="1">
          <mxGeometry x="1340" y="1091" width="200" height="40" as="geometry" />
        </mxCell>
        <mxCell id="0K_IOrLI0tBDZyWmZ6-7-6" value="&lt;font style=&quot;font-size: 17px;&quot;&gt;AM&lt;/font&gt;" style="rounded=1;whiteSpace=wrap;html=1;fillColor=#fff2cc;strokeColor=#d6b656;" vertex="1" parent="1">
          <mxGeometry x="1120" y="1091" width="200" height="40" as="geometry" />
        </mxCell>
        <mxCell id="0K_IOrLI0tBDZyWmZ6-7-9" value="" style="rounded=0;whiteSpace=wrap;html=1;" vertex="1" parent="1">
          <mxGeometry x="240" y="60" width="1300" height="60" as="geometry" />
        </mxCell>
        <mxCell id="6f3IqqdrzJDAKrH8Y-RG-1" value="BDATS DEGREE APPRENTICESHIP DELIVERY - SEMESTER 1" style="text;html=1;align=center;verticalAlign=middle;resizable=0;points=[];autosize=1;strokeColor=none;fillColor=none;fontSize=29;fontStyle=1" parent="1" vertex="1">
          <mxGeometry x="449" y="65" width="870" height="50" as="geometry" />
        </mxCell>
      </root>
    </mxGraphModel>
  </diagram>
  <diagram id="88d2MrCNwyC6OyhLqqab" name="Page-1">
    <mxGraphModel dx="1574" dy="1220" grid="1" gridSize="10" guides="1" tooltips="1" connect="1" arrows="1" fold="1" page="1" pageScale="1" pageWidth="1169" pageHeight="1654" math="0" shadow="0">
      <root>
        <mxCell id="0" />
        <mxCell id="1" parent="0" />
        <mxCell id="N6oc7P-Mdlf6XZM_aOut-4" value="&lt;font&gt;&lt;span style=&quot;font-size: 16px&quot;&gt;COM411&lt;br&gt;Problem Solving through Programming)&lt;/span&gt;&lt;/font&gt;" style="rounded=1;whiteSpace=wrap;html=1;fillColor=#dae8fc;strokeColor=#6c8ebf;" parent="1" vertex="1">
          <mxGeometry x="510" y="890" width="200" height="90" as="geometry" />
        </mxCell>
        <mxCell id="N6oc7P-Mdlf6XZM_aOut-5" value="&lt;span style=&quot;font-size: 16px&quot;&gt;COM412&lt;br&gt;Introduction to Networks&lt;br&gt;&amp;amp; Security&lt;/span&gt;" style="rounded=1;whiteSpace=wrap;html=1;fillColor=#dae8fc;strokeColor=#6c8ebf;" parent="1" vertex="1">
          <mxGeometry x="500" y="1000" width="200" height="90" as="geometry" />
        </mxCell>
        <mxCell id="N6oc7P-Mdlf6XZM_aOut-25" value="Level 6  (3rd Year )" style="swimlane;horizontal=0;fontSize=16;startSize=30;" parent="1" vertex="1">
          <mxGeometry x="130" y="535" width="700" height="217" as="geometry" />
        </mxCell>
        <mxCell id="N6oc7P-Mdlf6XZM_aOut-33" value="Level 5  (2nd Year )" style="swimlane;horizontal=0;fontSize=16;startSize=30;" parent="1" vertex="1">
          <mxGeometry x="130" y="320" width="700" height="215" as="geometry" />
        </mxCell>
        <mxCell id="N6oc7P-Mdlf6XZM_aOut-34" value="Level 5  (2nd Year )" style="swimlane;horizontal=0;fontSize=16;startSize=30;" parent="1" vertex="1">
          <mxGeometry x="130" y="105" width="700" height="650" as="geometry" />
        </mxCell>
        <mxCell id="N6oc7P-Mdlf6XZM_aOut-36" value="Semester 1 - Sept - Jan" style="swimlane;fontSize=16;fillColor=#f5f5f5;fontColor=#333333;strokeColor=#666666;" parent="1" vertex="1">
          <mxGeometry x="850" y="105" width="230" height="673" as="geometry" />
        </mxCell>
        <mxCell id="N6oc7P-Mdlf6XZM_aOut-7" value="&lt;span style=&quot;font-size: 16px&quot;&gt;COM417&lt;br&gt;Introduction &lt;br&gt;to Databases&lt;/span&gt;" style="rounded=1;whiteSpace=wrap;html=1;fillColor=#f8cecc;strokeColor=#b85450;" parent="N6oc7P-Mdlf6XZM_aOut-36" vertex="1">
          <mxGeometry x="10" y="31" width="200" height="90" as="geometry" />
        </mxCell>
        <mxCell id="N6oc7P-Mdlf6XZM_aOut-8" value="&lt;span style=&quot;font-size: 16px&quot;&gt;COM418&lt;br&gt;Data Analysis Tools &amp;amp; Application&lt;/span&gt;" style="rounded=1;whiteSpace=wrap;html=1;fillColor=#f8cecc;strokeColor=#b85450;" parent="N6oc7P-Mdlf6XZM_aOut-36" vertex="1">
          <mxGeometry x="10" y="141" width="200" height="90" as="geometry" />
        </mxCell>
        <mxCell id="N6oc7P-Mdlf6XZM_aOut-29" value="&lt;font style=&quot;font-size: 16px&quot;&gt;Level 4&lt;br&gt;(1st Year )&lt;/font&gt;" style="rounded=1;whiteSpace=wrap;html=1;fillColor=#f8cecc;strokeColor=#b85450;" parent="N6oc7P-Mdlf6XZM_aOut-36" vertex="1">
          <mxGeometry x="10" y="245" width="200" height="90" as="geometry" />
        </mxCell>
        <mxCell id="N6oc7P-Mdlf6XZM_aOut-30" value="&lt;font style=&quot;font-size: 16px&quot;&gt;Level 4&lt;br&gt;(1st Year )&lt;/font&gt;" style="rounded=1;whiteSpace=wrap;html=1;fillColor=#f8cecc;strokeColor=#b85450;" parent="N6oc7P-Mdlf6XZM_aOut-36" vertex="1">
          <mxGeometry x="10" y="355" width="200" height="90" as="geometry" />
        </mxCell>
        <mxCell id="N6oc7P-Mdlf6XZM_aOut-21" value="&lt;font style=&quot;font-size: 16px&quot;&gt;Level 4&lt;br&gt;(1st Year )&lt;/font&gt;" style="rounded=1;whiteSpace=wrap;html=1;fillColor=#f8cecc;strokeColor=#b85450;" parent="N6oc7P-Mdlf6XZM_aOut-36" vertex="1">
          <mxGeometry x="10" y="460" width="200" height="90" as="geometry" />
        </mxCell>
        <mxCell id="N6oc7P-Mdlf6XZM_aOut-22" value="&lt;font style=&quot;font-size: 16px&quot;&gt;Level 4&lt;br&gt;(1st Year )&lt;/font&gt;" style="rounded=1;whiteSpace=wrap;html=1;fillColor=#f8cecc;strokeColor=#b85450;" parent="N6oc7P-Mdlf6XZM_aOut-36" vertex="1">
          <mxGeometry x="10" y="570" width="200" height="90" as="geometry" />
        </mxCell>
        <mxCell id="N6oc7P-Mdlf6XZM_aOut-10" value="&lt;span style=&quot;font-size: 16px&quot;&gt;COM423&lt;br&gt;Systems Analysis &amp;amp; &lt;br&gt;Design Work&lt;br&gt;&amp;nbsp;Based Project&lt;/span&gt;" style="rounded=1;whiteSpace=wrap;html=1;fillColor=#e1d5e7;strokeColor=#9673a6;" parent="1" vertex="1">
          <mxGeometry x="30" y="790" width="200" height="90" as="geometry" />
        </mxCell>
        <mxCell id="N6oc7P-Mdlf6XZM_aOut-11" value="&lt;span style=&quot;font-size: 16px&quot;&gt;COM421&lt;br&gt;Data Structures, &lt;br&gt;Algorithms &amp;amp; Mathematics&lt;/span&gt;" style="rounded=1;whiteSpace=wrap;html=1;fillColor=#e1d5e7;strokeColor=#9673a6;" parent="1" vertex="1">
          <mxGeometry x="780" y="860" width="200" height="90" as="geometry" />
        </mxCell>
        <mxCell id="N6oc7P-Mdlf6XZM_aOut-31" value="&lt;font style=&quot;font-size: 16px&quot;&gt;Level 4&lt;br&gt;(1st Year )&lt;/font&gt;" style="rounded=1;whiteSpace=wrap;html=1;fillColor=#e1d5e7;strokeColor=#9673a6;" parent="1" vertex="1">
          <mxGeometry x="530" y="790" width="200" height="90" as="geometry" />
        </mxCell>
        <mxCell id="N6oc7P-Mdlf6XZM_aOut-32" value="&lt;font style=&quot;font-size: 16px&quot;&gt;Level 4&lt;br&gt;(1st Year )&lt;/font&gt;" style="rounded=1;whiteSpace=wrap;html=1;fillColor=#e1d5e7;strokeColor=#9673a6;" parent="1" vertex="1">
          <mxGeometry x="610" width="200" height="90" as="geometry" />
        </mxCell>
        <mxCell id="N6oc7P-Mdlf6XZM_aOut-23" value="&lt;font style=&quot;font-size: 16px&quot;&gt;Level 4&lt;br&gt;(1st Year )&lt;/font&gt;" style="rounded=1;whiteSpace=wrap;html=1;fillColor=#e1d5e7;strokeColor=#9673a6;" parent="1" vertex="1">
          <mxGeometry x="90" y="920" width="200" height="90" as="geometry" />
        </mxCell>
        <mxCell id="N6oc7P-Mdlf6XZM_aOut-24" value="&lt;font style=&quot;font-size: 16px&quot;&gt;Level 4&lt;br&gt;(1st Year )&lt;/font&gt;" style="rounded=1;whiteSpace=wrap;html=1;fillColor=#e1d5e7;strokeColor=#9673a6;" parent="1" vertex="1">
          <mxGeometry x="969" y="870" width="200" height="90" as="geometry" />
        </mxCell>
      </root>
    </mxGraphModel>
  </diagram>
</mxfile>
